PathFileType	4	(X/Y/Z)	/Users/itak/Documents/Research/Walk-IL/dataset/trc/00137_00007.trc
DataRate	CameraRate	NumFrames	NumMarkers	Units	OrigDataRate	OrigDataStartFrame	OrigNumFrames
100.000000	100.000000	4	53	mm	100.000000	90	726
Frame#	Time	RPSI			LPSI			L3			STRN			T10			C7			CLAV			RBAK			LBAK			LSHO			LUPA			LAEL			LAOL			LWTS			LWPS			LFRA			LIFD			LHPS			LHTS			RSHO			RUPA			RAEL			RAOL			RWTS			RWPS			RFRA			RIFD			RHTS			RHPS			RBHD			LFHD			RFHD			LBHD			LHIP			RHIP			RASI			LASI			LKNE			LTHI			LANK			LTIP			LTOE			LMT1			LMT5			LHEE			RKNE			RTHI			RANK			RTIP			RTOE			RMT1			RMT5			RHEE			
		X1	Y1	Z1	X2	Y2	Z2	X3	Y3	Z3	X4	Y4	Z4	X5	Y5	Z5	X6	Y6	Z6	X7	Y7	Z7	X8	Y8	Z8	X9	Y9	Z9	X10	Y10	Z10	X11	Y11	Z11	X12	Y12	Z12	X13	Y13	Z13	X14	Y14	Z14	X15	Y15	Z15	X16	Y16	Z16	X17	Y17	Z17	X18	Y18	Z18	X19	Y19	Z19	X20	Y20	Z20	X21	Y21	Z21	X22	Y22	Z22	X23	Y23	Z23	X24	Y24	Z24	X25	Y25	Z25	X26	Y26	Z26	X27	Y27	Z27	X28	Y28	Z28	X29	Y29	Z29	X30	Y30	Z30	X31	Y31	Z31	X32	Y32	Z32	X33	Y33	Z33	X34	Y34	Z34	X35	Y35	Z35	X36	Y36	Z36	X37	Y37	Z37	X38	Y38	Z38	X39	Y39	Z39	X40	Y40	Z40	X41	Y41	Z41	X42	Y42	Z42	X43	Y43	Z43	X44	Y44	Z44	X45	Y45	Z45	X46	Y46	Z46	X47	Y47	Z47	X48	Y48	Z48	X49	Y49	Z49	X50	Y50	Z50	X51	Y51	Z51	X52	Y52	Z52	X53	Y53	Z53	

91	0.9	224.4123840332031	1114.615356445312	1162.103637695312	213.5195617675781	1124.063354492188	1296.103759765625	223.2439270019531	1154.466674804688	1233.76708984375	-9.659481048583984	1337.506713867188	1222.380004882812	247.6303405761719	1309.57568359375	1240.68408203125	186.4984130859375	1596.280883789062	1251.301513671875	14.43967437744141	1475.252197265625	1225.825805664062	263.4938049316406	1416.133178710938	1174.093383789062	183.4180908203125	1577.190795898438	1353.016235351562	91.81486511230469	1558.523315429688	1413.5673828125	116.0332183837891	1429.157470703125	1487.0517578125	119.4571533203125	1209.284912109375	1507.188720703125	192.9652099609375	1204.24072265625	1459.445068359375	54.78826522827148	940.9619140625	1450.731201171875	133.7318572998047	924.8887939453125	1487.622802734375	113.5836791992188	1091.128662109375	1509.153198242188	72.25499725341797	747.90283203125	1425.483520507812	115.2626724243164	847.1124877929688	1484.97216796875	49.20558929443359	849.541748046875	1458.887451171875	154.6930999755859	1570.5556640625	1065.318481445312	187.4575042724609	1498.077392578125	1006.940185546875	230.6775207519531	1207.067993164062	997.219970703125	222.2143859863281	1207.85595703125	1093.253784179688	118.3460998535156	947.6824340820312	993.3800659179688	199.1812438964844	941.2905883789062	975.9419555664062	218.7567596435547	1131.9052734375	980.22509765625	118.1395111083984	752.3275756835938	1014.396240234375	104.9026336669922	835.7555541992188	986.0449829101562	177.3845977783203	837.6514282226562	968.4190673828125	158.9908905029297	1754.55712890625	1166.635131835938	-29.12953758239746	1830.852294921875	1251.581909179688	-0.4897802174091339	1823.160400390625	1125.271850585938	135.0042572021484	1765.801391601562	1298.390258789062	130.5900726318359	1029.147338867188	1403.540161132812	97.80727386474609	1015.104125976562	1043.230834960938	17.41196823120117	1082.915893554688	1095.97802734375	13.22456645965576	1082.428955078125	1363.0107421875	173.8083953857422	528.322509765625	1366.324096679688	176.3418884277344	676.15576171875	1396.20556640625	339.9876098632812	43.2569580078125	1341.177368164062	300.9858093261719	294.4529113769531	1383.875	110.9834518432617	42.04600524902344	1266.44873046875	195.4036254882812	46.46435546875	1239.812377929688	212.5571746826172	39.87673187255859	1358.24462890625	413.0396728515625	45.64641952514648	1283.438232421875	-126.041015625	589.2533569335938	1088.150024414062	3.509092092514038	836.752685546875	1055.479736328125	-92.34883880615234	62.27022552490234	1144.232421875	-119.7511291503906	446.1200866699219	1086.411743164062	-317.2658386230469	110.8696594238281	1137.631225585938	-276.9640502929688	86.94168853759766	1191.988159179688	-211.8109436035156	82.04831695556641	1092.222290039062	-49.04705429077148	61.24673080444336	1204.505493164062	
92	0.91	219.7603302001953	1113.374755859375	1161.359375	208.7697448730469	1123.029296875	1295.297729492188	218.6405181884766	1153.415893554688	1232.968627929688	-14.34303951263428	1336.304443359375	1221.229736328125	242.8770141601562	1308.60107421875	1239.725952148438	181.4869537353516	1595.246337890625	1249.98828125	9.610637664794922	1474.075073242188	1224.506103515625	258.7620849609375	1415.082641601562	1173.0517578125	178.3116912841797	1576.292236328125	1351.7197265625	86.65642547607422	1557.629028320312	1412.218017578125	110.863166809082	1428.222412109375	1485.815673828125	114.6901092529297	1208.416870117188	1506.12841796875	188.2314758300781	1203.42529296875	1458.438232421875	50.38798904418945	940.0343627929688	1449.90185546875	129.5261840820312	924.1115112304688	1486.41845703125	108.9560165405273	1090.239624023438	1508.095947265625	68.17083740234375	746.9749145507812	1424.453125	111.1975708007812	846.2840576171875	1483.800170898438	45.01097106933594	848.4884033203125	1457.98095703125	149.8738403320312	1569.262939453125	1063.991821289062	182.8153076171875	1496.778442382812	1005.72607421875	226.7497711181641	1205.89404296875	996.4599609375	218.1355895996094	1206.791381835938	1092.482543945312	115.1913986206055	946.16943359375	992.837646484375	196.0455169677734	939.9915161132812	975.5084228515625	215.0627899169922	1130.668823242188	979.553466796875	115.5563125610352	750.8463745117188	1014.216918945312	102.0420227050781	834.1766967773438	985.6842041015625	174.5403900146484	836.2727661132812	968.140869140625	153.8517150878906	1753.457153320312	1165.12744140625	-34.87674331665039	1829.329345703125	1249.001953125	-5.697808265686035	1821.287719726562	1122.691162109375	129.2686309814453	1764.98779296875	1296.72998046875	125.8659820556641	1028.251708984375	1402.836303710938	93.21180725097656	1013.77197265625	1042.605590820312	12.69990730285645	1081.59521484375	1095.19482421875	8.503138542175293	1081.428833007812	1362.18798828125	170.8719940185547	527.6754760742188	1365.892700195312	172.7698364257812	675.5376586914062	1395.47998046875	339.9347229003906	43.49832153320312	1340.90966796875	299.4992065429688	294.4176635742188	1383.367309570312	110.7625045776367	41.8309326171875	1266.545166015625	195.2837219238281	46.41019821166992	1239.80029296875	212.5076904296875	39.69565582275391	1358.207275390625	413.008056640625	46.01253128051758	1283.104736328125	-129.2888946533203	587.6056518554688	1086.404174804688	-0.2310442328453064	835.0432739257812	1053.7529296875	-113.6373901367188	60.2635383605957	1143.685546875	-127.1929473876953	444.6869506835938	1084.908447265625	-336.8802795410156	115.7315139770508	1136.0546875	-297.5260009765625	90.67940521240234	1190.503662109375	-232.2936401367188	83.7261962890625	1091.057739257812	-70.68419647216797	58.08382797241211	1204.11962890625	
93	0.92	214.9357147216797	1112.054931640625	1160.571533203125	203.842041015625	1121.92333984375	1294.450805664062	213.8536834716797	1152.270874023438	1232.119995117188	-19.14948844909668	1335.038940429688	1220.010498046875	237.9969635009766	1307.524047851562	1238.699462890625	176.3952941894531	1594.125732421875	1248.590087890625	4.682538509368896	1472.827270507812	1223.104614257812	253.9182434082031	1413.929321289062	1171.92822265625	173.1275939941406	1575.306274414062	1350.33984375	81.42684936523438	1556.665649414062	1410.788818359375	105.6293258666992	1427.257080078125	1484.520751953125	109.8019104003906	1207.46630859375	1505.00732421875	183.3318023681641	1202.49072265625	1457.333740234375	45.75834274291992	939.0455322265625	1449.042358398438	125.1097106933594	923.2564086914062	1485.126220703125	104.1628799438477	1089.271484375	1506.976928710938	63.75509262084961	745.9948120117188	1423.355224609375	106.8975448608398	845.3751220703125	1482.53125	40.57185745239258	847.3894653320312	1457.0439453125	144.9634704589844	1567.881103515625	1062.577758789062	178.0701141357422	1495.388061523438	1004.429931640625	222.6993865966797	1204.618286132812	995.6378784179688	213.9352569580078	1205.63818359375	1091.642700195312	111.8022918701172	944.6156616210938	992.2400512695312	192.676025390625	938.5994262695312	975.0277709960938	211.2243194580078	1129.329711914062	978.823486328125	112.6422882080078	749.32177734375	1014.006164550781	98.88414001464844	832.5543212890625	985.2818603515625	171.4062805175781	834.8145751953125	967.8240356445312	148.6294860839844	1752.298461914062	1163.533447265625	-40.71781158447266	1827.718627929688	1246.340698242188	-10.98393535614014	1819.358154296875	1120.063720703125	123.4415435791016	1764.104248046875	1294.986206054688	120.9580841064453	1027.293701171875	1402.088623046875	88.45281982421875	1012.350219726562	1041.922241210938	7.836907386779785	1080.205322265625	1094.3359375	3.661174535751343	1080.317749023438	1361.318603515625	167.7185974121094	526.9662475585938	1365.4013671875	168.9684143066406	674.852294921875	1394.7138671875	339.8689575195312	43.74224472045898	1340.64453125	297.871826171875	294.3712768554688	1382.884643554688	110.5507583618164	41.63496780395508	1266.643920898438	195.1652679443359	46.35628128051758	1239.781494140625	212.4634246826172	39.57272720336914	1358.178955078125	412.9883117675781	46.41279983520508	1282.792602539062	-132.4445953369141	585.7303466796875	1084.723754882812	-4.076768398284912	833.1762084960938	1052.059448242188	-134.5029449462891	58.66725921630859	1142.797119140625	-134.4429626464844	443.1914367675781	1083.369995117188	-355.8489074707031	120.8063125610352	1134.100708007812	-317.4515075683594	94.65428161621094	1188.604858398438	-252.2512817382812	85.69969177246094	1089.526611328125	-91.93181610107422	55.33601379394531	1203.365600585938	
94	0.93	209.9321594238281	1110.663940429688	1159.735595703125	198.7414855957031	1120.7490234375	1293.5595703125	208.8738861083984	1151.032958984375	1231.2177734375	-24.07991218566895	1333.710327148438	1218.711791992188	232.9911651611328	1306.343139648438	1237.60107421875	171.2193145751953	1592.920166015625	1247.10888671875	-0.3499263823032379	1471.512451171875	1221.615844726562	248.9656066894531	1412.675415039062	1170.72607421875	167.8626403808594	1574.231689453125	1348.876831054688	76.11968994140625	1555.62841796875	1409.279296875	100.3246307373047	1426.256225585938	1483.166137695312	104.7901916503906	1206.434692382812	1503.82763671875	178.2742767333984	1201.4462890625	1456.145874023438	40.88945388793945	937.997802734375	1448.125122070312	120.452522277832	922.313232421875	1483.758422851562	99.20648193359375	1088.228637695312	1505.798583984375	58.99535751342773	744.966796875	1422.190185546875	102.3306579589844	844.3842163085938	1481.174194335938	35.86515426635742	846.25830078125	1456.057495117188	139.9697113037109	1566.411743164062	1061.078369140625	173.2315368652344	1493.9033203125	1003.055786132812	218.5171966552734	1203.235473632812	994.7565307617188	209.599853515625	1204.39013671875	1090.736450195312	108.1672286987305	943.0161743164062	991.5846557617188	189.0738067626953	937.1119384765625	974.49755859375	207.2305297851562	1127.887084960938	978.0367431640625	109.3960800170898	747.743896484375	1013.753540039062	95.43463897705078	830.8825073242188	984.8308715820312	167.9927215576172	833.272216796875	967.462158203125	143.3243560791016	1751.079833984375	1161.85302734375	-46.6492805480957	1826.031005859375	1243.589721679688	-16.34151458740234	1817.378051757812	1117.390747070312	117.5242919921875	1763.154174804688	1293.155395507812	115.8638229370117	1026.273803710938	1401.29052734375	83.53240966796875	1010.848266601562	1041.169311523438	2.820362329483032	1078.749145507812	1093.392578125	-1.31137752532959	1079.097412109375	1360.399658203125	164.3441009521484	526.1941528320312	1364.851928710938	164.9377746582031	674.1004028320312	1393.9140625	339.7933044433594	43.98694229125977	1340.39697265625	296.0987548828125	294.3170776367188	1382.445068359375	110.3467407226562	41.44942092895508	1266.738403320312	195.0512084960938	46.30272674560547	1239.757202148438	212.4252471923828	39.50727844238281	1358.15771484375	412.9817199707031	46.86130523681641	1282.516235351562	-135.5567779541016	583.6668701171875	1083.112548828125	-8.047211647033691	831.1740112304688	1050.4033203125	-154.835205078125	57.47035980224609	1141.572265625	-141.5097503662109	441.6642456054688	1081.80322265625	-374.1016235351562	126.0346527099609	1131.751831054688	-336.67041015625	98.83244323730469	1186.288452148438	-271.5627136230469	87.93598937988281	1087.629760742188	-112.6874618530273	52.99892807006836	1202.268432617188	
